<?xml version="1.0" encoding="utf-8"?>
<!-- Generator: Adobe Illustrator 24.1.1, SVG Export Plug-In . SVG Version: 6.00 Build 0)  -->
<svg version="1.1" id="Layer_1" xmlns="http://www.w3.org/2000/svg" xmlns:xlink="http://www.w3.org/1999/xlink" x="0px" y="0px"
	 viewBox="0 0 512 512" style="enable-background:new 0 0 512 512;" xml:space="preserve">
<g>
	<path d="M269.1,512c-72.1,0-139.7-27.9-190.4-78.7S0,315,0,242.9v-0.1C0,138.6,59.3,48.2,145.9,3.5l1.5-0.7
		C150.8,1,154.9,0,159.2,0c14.4,0,26.1,11.7,26.1,26.1c0,2.7-0.4,5.4-1.2,7.9l0-0.2c-6.7,20.8-10.5,44.6-10.5,69.4
		c0,64.9,26.4,123.7,69,166.2c42.3,42.6,100.8,69,165.6,69h0.4h0h0.2c24.8,0,48.7-3.8,71.1-11l-1.7,0.4c2.3-0.7,4.9-1.2,7.7-1.2
		c14.4,0,26.1,11.7,26.1,26.1c0,4.3-1,8.4-2.9,12l0.1-0.1C463.7,452.7,373.4,512,269.1,512L269.1,512L269.1,512z M146.5,42.4
		C78.7,84.2,34.2,158,34.2,242.3v0.7v0c0,129.6,105.4,235,235,235h0.6c84.2,0,158.1-44.5,199.2-111.3l0.6-1
		c-18.3,4.4-39.3,6.9-60.8,6.9h-0.1h-0.5c-74.1,0-141.2-30.2-189.6-78.9l0,0c-48.8-48.7-79-116-79-190.4c0-21.6,2.5-42.5,7.3-62.6
		L146.5,42.4L146.5,42.4z"/>
</g>
</svg>
