<svg xmlns="http://www.w3.org/2000/svg" xmlns:xlink="http://www.w3.org/1999/xlink" version="1.1" id="Layer_1" x="0px" y="0px" viewBox="0 0 512 512" style="enable-background:new 0 0 512 512;" xml:space="preserve">
<g>
	<path d="M486.4,235.5c6.8,0,12.8,2,17.9,6.1c5.1,4.1,7.7,8.9,7.7,14.3c0,13.7-8.5,20.5-25.6,20.5h-24.6c-17.1,0-25.6-6.8-25.6-20.5   c0-5.5,2.6-10.2,7.7-14.3c5.1-4.1,11.1-6.1,17.9-6.1H486.4 M256,115.7c38.9,0,72.2,13.7,99.8,41s41.5,60.4,41.5,99.3   c0,39.6-13.8,73-41.5,100.4c-27.6,27.3-60.9,41-99.8,41s-72-13.7-99.3-41c-27.3-27.3-41-60.8-41-100.4c0-38.9,13.7-72,41-99.3   S217.1,115.7,256,115.7 M256,358.4c28,0,52.1-9.9,72.2-29.7c20.1-19.8,30.2-44,30.2-72.7c0-28-10.1-52.1-30.2-72.2   c-20.1-20.1-44.2-30.2-72.2-30.2s-52.1,10.1-72.2,30.2S153.6,228,153.6,256c0,28.7,10.1,52.9,30.2,72.7   C203.9,348.5,228,358.4,256,358.4 M76.8,256c0,13.7-8.5,20.5-25.6,20.5H25.6C8.5,276.5,0,269.7,0,256c0-5.5,2.6-10.2,7.7-14.3   c5.1-4.1,11.1-6.1,17.9-6.1h25.6c6.8,0,12.8,2,17.9,6.1C74.2,245.8,76.8,250.5,76.8,256 M256,76.8c-5.5,0-10.2-2.6-14.3-7.7   c-4.1-5.1-6.1-11.1-6.1-17.9V25.6c0-6.8,2-12.8,6.1-17.9C245.8,2.6,250.5,0,256,0c5.5,0,10.2,2.6,14.3,7.7s6.1,11.1,6.1,17.9v25.6   c0,6.8-2,12.8-6.1,17.9C266.2,74.2,261.5,76.8,256,76.8 M256,435.2c5.5,0,10.2,2.6,14.3,7.7s6.1,11.1,6.1,17.9v25.6   c0,6.8-2,12.8-6.1,17.9s-8.9,7.7-14.3,7.7c-5.5,0-10.2-2.6-14.3-7.7c-4.1-5.1-6.1-11.1-6.1-17.9v-25.6c0-6.8,2-12.8,6.1-17.9   C245.8,437.8,250.5,435.2,256,435.2 M444.4,97.3L427,114.7c-11.6,11.6-22.5,13-32.8,4.1c-9.6-9.6-8.2-20.5,4.1-32.8   c1.4-2,7.2-8.2,17.4-18.4C428,56,439,55,448.5,64.5S456.7,85,444.4,97.3 M86,398.3c4.8-5.5,10.4-8.5,16.9-9.2   c6.5-0.7,11.4,1,14.8,5.1c4.1,4.1,5.8,9.4,5.1,15.9c-0.7,6.5-3.4,12.1-8.2,16.9l-18.4,18.4c-4.8,4.8-10.4,7.5-16.9,8.2   c-6.5,0.7-11.4-1-14.8-5.1c-10.2-9.6-9.2-20.5,3.1-32.8C69.6,414.4,75.8,408.6,86,398.3 M96.3,67.6L114.7,86   c12.3,12.3,13.3,23.2,3.1,32.8c-3.4,3.4-8.4,4.8-14.8,4.1c-6.5-0.7-12.1-3.4-16.9-8.2c-10.2-10.2-16.4-16-18.4-17.4   c-4.8-4.8-7.5-10.4-8.2-16.9c-0.7-6.5,1-11.8,5.1-15.9c3.4-4.1,8.4-5.8,14.8-5.1C85.8,60.1,91.5,62.8,96.3,67.6 M398.3,427   c-12.3-12.3-13.7-23.2-4.1-32.8s20.5-8.2,32.8,4.1l17.4,17.4c12.3,12.3,13.7,23.2,4.1,32.8s-20.5,8.5-32.8-3.1   C405.5,435.2,399.7,429.1,398.3,427" fill="#ffffff"/>
</g>
</svg>